<svg width="16" height="16" viewBox="0 0 16 16" fill="none" xmlns="http://www.w3.org/2000/svg">
<g id="Call icon">
<path id="Vector" d="M6.3353 2.83815C6.13282 2.33193 5.64254 2 5.09733 2H3.26316C2.56554 2 2 2.56556 2 3.26318C2 9.19298 6.80719 14 12.737 14C13.4346 14 14 13.4345 14 12.7369L13.9999 10.9027C13.9999 10.3575 13.6679 9.86724 13.1617 9.66476L11.4048 8.96192C10.95 8.78003 10.4324 8.86201 10.0561 9.17554L9.60205 9.55382C9.07228 9.99529 8.29332 9.95999 7.8057 9.47236L6.52758 8.19434C6.03995 7.70671 6.00482 6.92769 6.44629 6.39792L6.82454 5.94398C7.13807 5.56775 7.22001 5.04995 7.03813 4.59524L6.3353 2.83815Z" stroke="#40282C" stroke-linecap="round" stroke-linejoin="round"/>
</g>
</svg>
